<svg width="65" height="65" viewBox="0 0 65 65" fill="none" xmlns="http://www.w3.org/2000/svg">
<rect width="65" height="65" rx="32.5" fill="#0D9957"/>
<g filter="url(#filter0_b_122_90)">
<circle cx="32.5002" cy="32.5002" r="27.2297" fill="#074D2C"/>
</g>
<g clip-path="url(#clip0_122_90)">
<path d="M32.5033 18.1528H32.4961C24.5856 18.1528 18.1528 24.5874 18.1528 32.4997C18.1528 35.6381 19.1643 38.5469 20.8841 40.9087L19.0961 46.2386L24.6107 44.4757C26.8793 45.9785 29.5855 46.8465 32.5033 46.8465C40.4138 46.8465 46.8465 40.4102 46.8465 32.4997C46.8465 24.5892 40.4138 18.1528 32.5033 18.1528ZM40.8513 38.4124C40.5052 39.3898 39.1315 40.2003 38.0358 40.4371C37.2861 40.5967 36.307 40.724 33.0108 39.3575C28.7946 37.6107 26.0795 33.3264 25.8678 33.0484C25.6652 32.7705 24.1642 30.7799 24.1642 28.7211C24.1642 26.6623 25.2097 25.6598 25.6311 25.2294C25.9772 24.8761 26.5493 24.7147 27.0981 24.7147C27.2756 24.7147 27.4352 24.7237 27.5787 24.7309C28.0001 24.7488 28.2118 24.7739 28.4897 25.4392C28.8359 26.2731 29.6787 28.3319 29.7792 28.5435C29.8814 28.7552 29.9836 29.0421 29.8401 29.3201C29.7056 29.607 29.5873 29.7343 29.3757 29.9782C29.164 30.2221 28.9632 30.4086 28.7516 30.6705C28.5579 30.8982 28.3391 31.1421 28.583 31.5635C28.8269 31.976 29.6698 33.3515 30.9108 34.4562C32.5122 35.8819 33.8106 36.3375 34.2751 36.5311C34.6212 36.6746 35.0337 36.6405 35.2866 36.3715C35.6076 36.0254 36.0039 35.4515 36.4074 34.8866C36.6943 34.4813 37.0566 34.4311 37.4368 34.5746C37.8242 34.7091 39.874 35.7223 40.2954 35.9322C40.7168 36.1438 40.9948 36.2442 41.097 36.4217C41.1975 36.5993 41.1975 37.4332 40.8513 38.4124Z" fill="white"/>
</g>
<defs>
<filter id="filter0_b_122_90" x="-4.72949" y="-4.72949" width="74.4595" height="74.4595" filterUnits="userSpaceOnUse" color-interpolation-filters="sRGB">
<feFlood flood-opacity="0" result="BackgroundImageFix"/>
<feGaussianBlur in="BackgroundImageFix" stdDeviation="5"/>
<feComposite in2="SourceAlpha" operator="in" result="effect1_backgroundBlur_122_90"/>
<feBlend mode="normal" in="SourceGraphic" in2="effect1_backgroundBlur_122_90" result="shape"/>
</filter>
<clipPath id="clip0_122_90">
<rect width="28.6937" height="28.6937" fill="white" transform="translate(18.1528 18.1528)"/>
</clipPath>
</defs>
</svg>
