<svg xmlns="http://www.w3.org/2000/svg" xmlns:xlink="http://www.w3.org/1999/xlink" viewBox="0 0 472 194.41"><defs><style>.cls-1{fill:url(#Gradiente_sem_nome);}.cls-2{fill:#fff;}.cls-3{fill:#ed1d24;}</style><radialGradient id="Gradiente_sem_nome" cx="-113.5" cy="380.54" r="43.84" gradientTransform="matrix(-0.02, 2.54, -6.33, -0.04, 2643.92, 406.29)" gradientUnits="userSpaceOnUse"><stop offset="0" stop-color="gray"/><stop offset="1" stop-color="gray" stop-opacity="0"/></radialGradient></defs><g id="Camada_2" data-name="Camada 2"><g id="svg902"><g id="layer1"><g id="g38"><path id="path40" class="cls-1" d="M472,102.35c0,50.91-105.67,92.06-236.09,92.06C105.66,194.41,0,153.26,0,102.35S105.66,10.29,236.08,10.29C366.33,10.29,472,51.44,472,102.35"/></g><g id="g42"><path id="path44" class="cls-2" d="M467.47,97.64c0,47.6-103.57,86.13-231.39,86.13C108.28,183.6,4.71,145.07,4.71,97.64c0-47.6,103.57-86.13,231.37-86.13S467.47,50,467.47,97.64"/></g><g id="g46"><path id="path48" class="cls-3" d="M459.79,90.49c0,48.13-99.73,87-222.65,87-123.11,0-222.67-38.88-222.67-87S114,3.31,237.14,3.31c122.92,0,222.65,39.06,222.65,87.18"/></g><g id="g50"><path id="path52" class="cls-2" d="M446,89.27c0,49.35-93.81,89.28-209.41,89.28S27.2,138.62,27.2,89.27,121,0,236.61,0,446,39.93,446,89.27"/></g><g id="g54"><path id="path56" class="cls-3" d="M103.75,58.06V56h74.8v2.09h-6.28c-7.15,0-12.38.87-15.51,2.62-2.1,1-3.15,3.83-3.15,8.19v35.57c0,5.41-1.39,9.94-4.36,13.26-3,3.48-7.84,6.45-15,8.88-7,2.45-15.52,3.84-25.63,3.84-8.19,0-14.48-.87-19.18-2.44s-7-3.49-7-5.75c0-1.74,1-3.14,3.13-4a28.13,28.13,0,0,1,9.94-1.74,25.09,25.09,0,0,1,7.5,1c2.26.7,4.88,2.79,8.37,5.93a10.43,10.43,0,0,0,7.67,2.79,12,12,0,0,0,6.45-1.75c2.1-1.22,3-3.31,3-6.27V68.87c0-3.66-.53-6.1-1.57-7.15-.88-.87-2.62-1.57-5.41-2.26a50.14,50.14,0,0,0-11.68-1.22h-6.1Z"/></g><g id="g58"><path id="path60" class="cls-3" d="M226.15,93.28v26.16a4.66,4.66,0,0,0,2.27,4.36c1.39,1,3.66,1.39,6.62,1.39a37.83,37.83,0,0,0,12-1.92,17.31,17.31,0,0,0,8.37-5.57,12.72,12.72,0,0,0,3-8,14.18,14.18,0,0,0-3.49-9.25,20.88,20.88,0,0,0-9.77-5.75,103.13,103.13,0,0,0-19-1.4m0-4c7.67,0,13.43-.52,17.09-1.74a19.4,19.4,0,0,0,8.37-4.88,11.37,11.37,0,0,0,3-8,10.64,10.64,0,0,0-3-8,17.53,17.53,0,0,0-8.37-4.71q-5.49-1.57-17.27-1.57V89.27Zm29.64,1.4c10.29,1.57,17.61,3.66,21.8,5.93,5.92,3.31,9.06,7.49,9.06,12.73q0,8.37-9.94,13.59c-8.19,4.36-20,6.45-35.57,6.45H185.35v-1.91q7.85,0,10.46-1c1.92-.7,3.14-1.39,3.84-2.44s1-3.48,1-7.49V69.22c0-4-.34-6.45-1-7.5a7.06,7.06,0,0,0-3.84-2.44c-1.92-.69-5.4-.87-10.46-.87V56.5H238c12.55,0,21.44.69,26.68,2.26s9.41,3.66,12.37,6.63,4.54,6.1,4.54,9.41q0,5.24-5.76,9.41c-3.66,2.62-10.46,4.71-20,6.46"/></g><g id="g62"><path id="path64" class="cls-3" d="M348,132.69c12.38-3,18.83-9.07,18.83-16.56,0-10.47-11.51-16.57-29.12-20.93-17.26-4.53-28.77-9.41-28.6-17.78-.17-9.94,13.95-16.74,38.19-16.74,16.56,0,24.06,2.09,24.93,3.66A37.76,37.76,0,0,1,373.83,75c0,.87-4,.87-4.36,0-3.14-7.5-8.37-11.86-23-11.86-14.82,0-24.94,4.71-24.94,12.56,0,7.67,8.9,12,24.59,16,19.18,4.88,33.48,11.16,33.48,22.49s-13.95,17.61-29.12,19c-1.22.17-3.14-.35-2.44-.53m-28.6,1c-16.22,0-26.16-2.26-26.85-4.35a40.3,40.3,0,0,1-1.92-11c0-.87,4.19-.87,4.36,0,2.79,7.85,10.47,12.56,25.46,12.56,17.09,0,28.07-4.54,28.07-13.43,0-8.37-9.24-13.6-26.85-18-19.71-5.23-31-12.2-31-20.74,0-10.29,13.78-16.57,25.28-18,1.05-.18,3.32.34,2.1.69-10.82,2.09-19.7,8-19.7,16.39,0,8.54,9.24,15,27.2,19.88,19,4.88,30.51,10.11,30.51,19.35,0,9.77-13.61,16.22-36.1,16.22h-.52Z"/></g></g></g></g></svg>